<svg width="51" height="22" viewBox="0 0 51 22" fill="none" xmlns="http://www.w3.org/2000/svg">
<path d="M9.74402 3.43216C9.16189 4.12109 8.23039 4.6644 7.29894 4.58681C7.18253 3.65532 7.63855 2.66564 8.17221 2.05439C8.75434 1.3461 9.77314 0.841553 10.5979 0.802734C10.6949 1.773 10.3165 2.72387 9.74402 3.43216ZM10.5882 4.77115C9.23948 4.69352 8.08487 5.53767 7.44446 5.53767C6.7944 5.53767 5.81442 4.80997 4.74711 4.82938C3.35963 4.84879 2.06916 5.63467 1.36087 6.88633C-0.0945377 9.38964 0.982482 13.0961 2.38936 15.1337C3.07825 16.1428 3.903 17.2489 4.98967 17.2101C6.01817 17.1713 6.42571 16.5406 7.66767 16.5406C8.91932 16.5406 9.2783 17.2101 10.365 17.1907C11.4905 17.1713 12.1988 16.1816 12.8877 15.1725C13.6736 14.0276 13.9938 12.9117 14.0132 12.8535C13.9938 12.8341 11.8398 12.0094 11.8204 9.5255C11.801 7.4491 13.5184 6.45942 13.596 6.4012C12.6258 4.9652 11.1121 4.80997 10.5882 4.77115ZM18.3794 1.95734V17.0839H20.7275V11.9124H23.978C26.947 11.9124 29.0331 9.87477 29.0331 6.92515C29.0331 3.97552 26.9858 1.95734 24.0556 1.95734H18.3794ZM20.7275 3.9367H23.4346C25.4722 3.9367 26.6365 5.02343 26.6365 6.93485C26.6365 8.84632 25.4722 9.94271 23.4249 9.94271H20.7275V3.9367ZM33.3217 17.2004C34.7965 17.2004 36.1646 16.4533 36.7856 15.2695H36.8341V17.0839H39.0075V9.55462C39.0075 7.37146 37.261 5.96458 34.5733 5.96458C32.0797 5.96458 30.2362 7.39087 30.1683 9.35087H32.2835C32.4582 8.41937 33.3217 7.80812 34.5055 7.80812C35.9414 7.80812 36.7468 8.4776 36.7468 9.70984V10.5443L33.8165 10.7189C31.0901 10.8839 29.6152 11.9997 29.6152 13.9402C29.6152 15.9002 31.1386 17.2004 33.3217 17.2004ZM33.9524 15.4053C32.7007 15.4053 31.9051 14.8038 31.9051 13.882C31.9051 12.9312 32.6716 12.3781 34.1367 12.2908L36.7468 12.1258V12.9797C36.7468 14.3963 35.5436 15.4053 33.9524 15.4053ZM41.9087 21.1979C44.1985 21.1979 45.2753 20.3246 46.2166 17.6758L50.3401 6.11015H47.9533L45.1879 15.0464H45.1394L42.3745 6.11015H39.9196L43.8977 17.1227L43.6842 17.7922C43.3251 18.9275 42.7429 19.3641 41.7049 19.3641C41.5205 19.3641 41.1615 19.3447 41.0159 19.3252V21.1397C41.1518 21.1785 41.734 21.1979 41.9087 21.1979Z" fill="black"/>
</svg>
