<svg width="1440" height="200" viewBox="0 0 1440 200" fill="none" xmlns="http://www.w3.org/2000/svg">
<rect y="3.05176e-05" width="1440" height="200" fill="#FCF5DC"/>
<mask id="mask0_1_2" style="mask-type:alpha" maskUnits="userSpaceOnUse" x="0" y="0" width="1440" height="200">
<rect width="1440" height="200" fill="#FCF5DC"/>
</mask>
<g mask="url(#mask0_1_2)">
<g clip-path="url(#clip0_1_2)">
<path d="M1049.08 -3.27312C1001.37 -17.2393 946.449 -13.1508 894.279 12.3027L825.387 45.9149L947.654 296.515L1025.62 258.475C1057.55 242.899 1071.19 211.374 1069.48 180.676C1068.19 157.005 1058.04 133.4 1039.49 118.214C1002.79 88.2326 955.918 105.791 918.42 124.086L891.595 69.1058C953.554 38.8762 1020.28 23.5526 1078.43 70.9696C1110 96.7533 1128.47 136.423 1130.74 176.843C1133.68 230.448 1109.35 285.778 1052.48 313.524L919.233 378.535L743.249 17.8362L867.421 -42.7467C933.756 -75.1115 1004.39 -79.9666 1066.46 -61.7416C1204.09 -21.3939 1275.05 123.58 1227.5 257.568C1202.92 326.84 1150.16 382.049 1084.35 414.155L865.77 520.801L692.739 166.156L748.18 139.106C796.885 238.934 845.452 338.828 894.258 438.862L1057.54 359.197C1109.39 333.901 1150.34 292.12 1169.78 237.333C1205.57 136.415 1152.8 27.2485 1049.08 -3.27312Z" fill="#F7EED0"/>
</g>
</g>
<defs>
<clipPath id="clip0_1_2">
<rect width="516" height="505.782" fill="white" transform="translate(644 66.2617) rotate(-26.0076)"/>
</clipPath>
</defs>
</svg>
