<svg width="18" height="18" viewBox="0 0 18 18" fill="none" xmlns="http://www.w3.org/2000/svg">
<g clip-path="url(#clip0_1_123)">
<path fill-rule="evenodd" clip-rule="evenodd" d="M17.1944 9.347C17.0624 9.10666 17.0654 8.88809 17.1966 8.64845C17.3968 8.28253 17.5821 7.90846 17.7672 7.53492L17.7771 7.51489C18.2448 6.57247 17.9714 5.76007 17.0184 5.26181C16.9535 5.22784 16.8886 5.19368 16.8237 5.15951L16.8233 5.15927C16.5245 5.00193 16.2257 4.84456 15.9174 4.70662C15.5957 4.56256 15.4395 4.33697 15.3911 4.00667C15.3266 3.56673 15.2504 3.1275 15.1529 2.69319C14.9594 1.83301 14.1905 1.32842 13.2793 1.44648C13.1371 1.46487 12.9949 1.4857 12.8528 1.50652C12.5115 1.55651 12.1703 1.60651 11.8272 1.62288C11.622 1.63272 11.3691 1.54768 11.2078 1.42329C10.9823 1.24919 10.7769 1.05123 10.5714 0.853181L10.5714 0.853176C10.4575 0.743449 10.3436 0.633698 10.2263 0.527965C9.4493 -0.172694 8.55795 -0.176208 7.78168 0.518829L7.67174 0.616923L7.67173 0.616929C7.41301 0.84751 7.1537 1.07861 6.91745 1.32912C6.66089 1.60179 6.37282 1.68894 6.00118 1.62218C5.71872 1.57201 5.43345 1.53703 5.14804 1.50204L5.14801 1.50204C5.02161 1.48654 4.89519 1.47104 4.76897 1.45421C3.76914 1.32139 3.02952 1.82457 2.82941 2.78315C2.74291 3.19567 2.66668 3.61101 2.6029 4.02705C2.55452 4.34259 2.40499 4.56185 2.09419 4.6996C1.83175 4.81577 1.57736 4.94854 1.32297 5.08131L1.32294 5.08133C1.23415 5.12767 1.14536 5.17401 1.05623 5.21964C0.0146157 5.75445 -0.2588 6.55139 0.252114 7.56619C0.307476 7.67612 0.365713 7.78511 0.423957 7.89412L0.423964 7.89413C0.560825 8.15027 0.697727 8.40649 0.797479 8.67516C0.870048 8.87123 0.870048 9.13406 0.79528 9.32873C0.692791 9.59524 0.557141 9.84952 0.421347 10.1041C0.351244 10.2355 0.281101 10.367 0.215463 10.5002C-0.239742 11.4251 0.0336742 12.2375 0.966074 12.7294C1.10205 12.8013 1.24071 12.8691 1.37935 12.9369C1.64355 13.0662 1.90765 13.1954 2.15283 13.3521C2.33389 13.468 2.50468 13.6789 2.56185 13.8784C2.6421 14.1604 2.69136 14.45 2.74067 14.7398L2.74067 14.7398C2.77198 14.9238 2.80331 15.108 2.8426 15.2903C3.03245 16.1681 3.81092 16.6783 4.73819 16.5511C4.85588 16.5349 4.97352 16.5173 5.09117 16.4998C5.44471 16.4469 5.79835 16.394 6.15365 16.3803C6.36989 16.3719 6.63231 16.4597 6.80383 16.589C7.0311 16.7605 7.23595 16.9589 7.44082 17.1574C7.54585 17.2592 7.65089 17.3609 7.75895 17.4591C8.54988 18.1766 9.44197 18.1801 10.23 17.4682C10.2833 17.4201 10.3369 17.3722 10.3906 17.3243L10.391 17.3239C10.6234 17.1164 10.8563 16.9084 11.0671 16.6818C11.3317 16.3972 11.63 16.3107 12.0156 16.3782C12.3621 16.4386 12.7119 16.4823 13.0318 16.5222L13.0319 16.5222C13.1661 16.539 13.2951 16.5551 13.4164 16.5715C14.296 16.6017 14.9807 16.0823 15.1529 15.3016C15.2519 14.8553 15.3303 14.4048 15.3985 13.9536C15.4447 13.6479 15.5949 13.4413 15.8881 13.3071C16.1473 13.1886 16.4005 13.0574 16.6536 12.9264L16.654 12.9261C16.7444 12.8793 16.8347 12.8326 16.9253 12.7863C17.9934 12.2403 18.2624 11.456 17.7383 10.418C17.6884 10.3192 17.6392 10.22 17.5899 10.1208L17.5898 10.1207C17.4608 9.86097 17.3317 9.60106 17.1922 9.3463L17.1944 9.347ZM6.81703 4.33837C7.91216 4.32924 8.80497 5.16764 8.8167 6.21547C8.82843 7.25064 7.93708 8.12348 6.85294 8.13754C5.78127 8.15159 4.8672 7.2893 4.8518 6.25061C4.83641 5.21332 5.72629 4.34751 6.81703 4.33837ZM5.62652 12.8842L5.62651 12.8842L5.62649 12.8842C5.59365 12.9035 5.56473 12.9204 5.54231 12.9353C5.03799 12.9445 4.76897 12.5432 4.95369 12.2002C5.00794 12.099 5.09663 12.0119 5.18166 11.9304C7.46721 9.73704 9.75423 7.5444 12.0412 5.35247C12.0559 5.33838 12.0705 5.32396 12.085 5.30951L12.085 5.30951C12.13 5.26484 12.1752 5.21991 12.2267 5.1838C12.4774 5.00811 12.7318 5.0053 12.9517 5.22246C13.1716 5.43961 13.1606 5.68277 12.9707 5.9189C12.9375 5.96014 12.8986 5.99674 12.8598 6.03328L12.8597 6.03335C12.8463 6.04598 12.8329 6.0586 12.8197 6.0714L11.9597 6.8962L11.9597 6.89622C9.95139 8.82243 7.94306 10.7486 5.93081 12.6711V12.6704C5.83482 12.7619 5.71607 12.8316 5.62652 12.8842ZM11.1675 13.662C10.0731 13.6634 9.18541 12.8159 9.18468 11.7694C9.18394 10.7315 10.0841 9.86424 11.1631 9.86283C12.2406 9.86143 13.1459 10.7286 13.1488 11.7652C13.1518 12.806 12.2582 13.6613 11.1675 13.6627V13.662ZM6.81783 7.09811C7.30749 7.10724 7.73337 6.71088 7.73777 6.24003C7.7429 5.77339 7.31922 5.36579 6.83103 5.36719C6.3553 5.3686 5.94554 5.75161 5.93015 6.20981C5.91402 6.67785 6.32524 7.08897 6.81783 7.09811ZM10.2618 11.7773C10.2545 11.3107 10.6752 10.9031 11.1649 10.9023H11.1656C11.6567 10.9009 12.076 11.305 12.0716 11.7738C12.0672 12.2432 11.6384 12.6431 11.151 12.6326C10.6738 12.622 10.2684 12.2327 10.2618 11.7773Z" fill="#219653"/>
</g>
<defs>
<clipPath id="clip0_1_123">
<rect width="18" height="18" fill="white"/>
</clipPath>
</defs>
</svg>
