<svg width="39" height="32" viewBox="0 0 39 32" fill="none" xmlns="http://www.w3.org/2000/svg">
<path d="M7.1078 31.0287V29.0252C7.1078 28.2589 6.64096 27.757 5.83955 27.757C5.43885 27.757 5.00316 27.8893 4.70361 28.325C4.47019 27.9593 4.13562 27.757 3.63375 27.757C3.29922 27.757 2.96465 27.8582 2.70013 28.2238V27.8231H1.99988V31.0287H2.70013V29.2587C2.70013 28.6907 2.99968 28.4222 3.46651 28.4222C3.93335 28.4222 4.16672 28.7218 4.16672 29.2587V31.0287H4.86697V29.2587C4.86697 28.6907 5.20155 28.4222 5.63335 28.4222C6.10019 28.4222 6.3336 28.7218 6.3336 29.2587V31.0287H7.1078ZM17.4948 27.8231H16.3588V26.8545H15.6586V27.8231H15.0245V28.4573H15.6586V29.9278C15.6586 30.6631 15.9582 31.0949 16.7595 31.0949C17.0591 31.0949 17.3936 30.9937 17.6271 30.8614L17.4247 30.2585C17.2225 30.3907 16.9891 30.4258 16.8218 30.4258C16.4872 30.4258 16.3549 30.2234 16.3549 29.8928V28.4573H17.4909V27.8231H17.4948ZM23.4391 27.7531C23.0384 27.7531 22.77 27.9554 22.6027 28.22V27.8192H21.9025V31.0248H22.6027V29.2198C22.6027 28.6868 22.8361 28.3834 23.2718 28.3834C23.4041 28.3834 23.5714 28.4183 23.7076 28.4495L23.9098 27.7803C23.7698 27.7531 23.5714 27.7531 23.4391 27.7531ZM14.4565 28.0877C14.1219 27.8543 13.6551 27.7531 13.1533 27.7531C12.3519 27.7531 11.8189 28.1538 11.8189 28.7879C11.8189 29.3209 12.2196 29.6243 12.9198 29.7216L13.2544 29.7566C13.6201 29.8227 13.8224 29.9239 13.8224 30.0912C13.8224 30.3246 13.554 30.4919 13.0871 30.4919C12.6203 30.4919 12.2507 30.3246 12.0173 30.1573L11.6827 30.6903C12.0484 30.9587 12.5502 31.091 13.0521 31.091C13.9858 31.091 14.5226 30.6552 14.5226 30.0561C14.5226 29.4882 14.0869 29.1886 13.4217 29.0875L13.0871 29.0525C12.7876 29.0174 12.5542 28.9513 12.5542 28.7529C12.5542 28.5195 12.7876 28.3872 13.1571 28.3872C13.5579 28.3872 13.9586 28.5545 14.1608 28.6556L14.4565 28.0877ZM33.087 27.7531C32.6863 27.7531 32.4178 27.9554 32.2506 28.22V27.8192H31.5503V31.0248H32.2506V29.2198C32.2506 28.6868 32.484 28.3834 32.9197 28.3834C33.052 28.3834 33.2193 28.4183 33.3554 28.4495L33.5577 27.7881C33.4215 27.7531 33.2231 27.7531 33.087 27.7531ZM24.1394 29.426C24.1394 30.3946 24.8085 31.0949 25.8433 31.0949C26.3101 31.0949 26.6447 30.9937 26.9792 30.7292L26.6447 30.1612C26.3763 30.3635 26.1117 30.4607 25.8083 30.4607C25.2403 30.4607 24.8396 30.06 24.8396 29.426C24.8396 28.8229 25.2403 28.4222 25.8083 28.3911C26.1078 28.3911 26.3763 28.4923 26.6447 28.6907L26.9792 28.1227C26.6447 27.8543 26.3101 27.757 25.8433 27.757C24.8085 27.7531 24.1394 28.4573 24.1394 29.426ZM30.6166 29.426V27.8231H29.9164V28.2238C29.683 27.9243 29.3484 27.757 28.9127 27.757C28.0102 27.757 27.3099 28.4573 27.3099 29.426C27.3099 30.3946 28.0102 31.0949 28.9127 31.0949C29.3795 31.0949 29.7141 30.9276 29.9164 30.628V31.0287H30.6166V29.426ZM28.0452 29.426C28.0452 28.858 28.4109 28.3911 29.0139 28.3911C29.5819 28.3911 29.9826 28.8268 29.9826 29.426C29.9826 29.9939 29.5819 30.4607 29.0139 30.4607C28.4148 30.4258 28.0452 29.99 28.0452 29.426ZM19.6656 27.7531C18.7319 27.7531 18.0627 28.4222 18.0627 29.422C18.0627 30.4258 18.7319 31.091 19.7006 31.091C20.1674 31.091 20.6342 30.9587 21.0038 30.6552L20.6693 30.1534C20.4008 30.3557 20.0663 30.488 19.7356 30.488C19.2999 30.488 18.868 30.2857 18.7669 29.7216H21.1361C21.1361 29.6205 21.1361 29.5543 21.1361 29.4532C21.1672 28.4222 20.5642 27.7531 19.6656 27.7531ZM19.6656 28.3561C20.1013 28.3561 20.4008 28.6245 20.4669 29.1225H18.798C18.8642 28.6907 19.1637 28.3561 19.6656 28.3561ZM37.063 29.426V26.5549H36.3624V28.2238C36.129 27.9243 35.7944 27.757 35.3591 27.757C34.4564 27.757 33.7561 28.4573 33.7561 29.426C33.7561 30.3946 34.4564 31.0949 35.3591 31.0949C35.8259 31.0949 36.1604 30.9276 36.3624 30.628V31.0287H37.063V29.426ZM34.4913 29.426C34.4913 28.858 34.8571 28.3911 35.4599 28.3911C36.0278 28.3911 36.4289 28.8268 36.4289 29.426C36.4289 29.9939 36.0278 30.4607 35.4599 30.4607C34.8571 30.4258 34.4913 29.99 34.4913 29.426ZM11.0486 29.426V27.8231H10.3484V28.2238C10.115 27.9243 9.78038 27.757 9.34469 27.757C8.44212 27.757 7.74187 28.4573 7.74187 29.426C7.74187 30.3946 8.44212 31.0949 9.34469 31.0949C9.81153 31.0949 10.1461 30.9276 10.3484 30.628V31.0287H11.0486V29.426ZM8.44605 29.426C8.44605 28.858 8.81173 28.3911 9.41471 28.3911C9.9827 28.3911 10.3834 28.8268 10.3834 29.426C10.3834 29.9939 9.9827 30.4607 9.41471 30.4607C8.81173 30.4258 8.44605 29.99 8.44605 29.426Z" fill="#2D286F"/>
<path d="M24.7419 3.47852H14.2227V22.3774H24.7419V3.47852Z" fill="#FF5A00"/>
<path d="M14.9233 12.9272C14.9233 9.08751 16.7284 5.67959 19.4983 3.47772C17.4597 1.87495 14.8883 0.90625 12.0834 0.90625C5.43882 0.90625 0.0625 6.28261 0.0625 12.9272C0.0625 19.5717 5.43882 24.9481 12.0834 24.9481C14.8883 24.9481 17.4597 23.9794 19.4983 22.3766C16.7245 20.2059 14.9233 16.7669 14.9233 12.9272Z" fill="#EB001B"/>
<path d="M38.9359 12.9272C38.9359 19.5717 33.5594 24.9481 26.9148 24.9481C24.11 24.9481 21.5385 23.9794 19.5 22.3766C22.3049 20.1708 24.075 16.7669 24.075 12.9272C24.075 9.08751 22.2699 5.67959 19.5 3.47772C21.5346 1.87495 24.1061 0.90625 26.9109 0.90625C33.5594 0.90625 38.9359 6.3176 38.9359 12.9272Z" fill="#F79E1B"/>
</svg>
