<svg width="78" height="78" viewBox="0 0 78 78" fill="none" xmlns="http://www.w3.org/2000/svg">
<path d="M30.3934 28.6169L32.4075 29.9897L30.3934 28.6169ZM43.6184 30.1572L44.896 28.0814L43.6184 30.1572ZM34.611 26.0212L34.3397 23.5988L34.611 26.0212ZM34.611 51.9788L34.3397 54.4012L34.611 51.9788ZM30.3934 49.3831L28.3792 50.756L30.3934 49.3831ZM51.4824 41.5957L49.2332 40.6562L51.4824 41.5957ZM51.4824 36.4043L49.2332 37.3438L51.4824 36.4043ZM69.0625 39C69.0625 55.6031 55.6031 69.0625 39 69.0625V73.9375C58.2954 73.9375 73.9375 58.2954 73.9375 39H69.0625ZM39 69.0625C22.3969 69.0625 8.9375 55.6031 8.9375 39H4.0625C4.0625 58.2954 19.7046 73.9375 39 73.9375V69.0625ZM8.9375 39C8.9375 22.3969 22.3969 8.9375 39 8.9375V4.0625C19.7046 4.0625 4.0625 19.7046 4.0625 39H8.9375ZM39 8.9375C55.6031 8.9375 69.0625 22.3969 69.0625 39H73.9375C73.9375 19.7046 58.2954 4.0625 39 4.0625V8.9375ZM31.6875 39C31.6875 36.053 31.6897 34.0014 31.8214 32.4701C31.9549 30.9197 32.1993 30.2952 32.4075 29.9897L28.3792 27.244C27.4441 28.616 27.1168 30.2813 26.9644 32.0521C26.8103 33.8421 26.8125 36.1432 26.8125 39H31.6875ZM44.896 28.0814C42.5811 26.6567 40.6967 25.4939 39.1474 24.7323C37.6149 23.9789 36.0191 23.4107 34.3397 23.5988L34.8824 28.4435C35.1375 28.4149 35.6879 28.4638 36.9967 29.1072C38.2885 29.7423 39.9405 30.7559 42.3409 32.2331L44.896 28.0814ZM32.4075 29.9897C33.0243 29.0848 33.935 28.5497 34.8824 28.4435L34.3397 23.5988C31.9122 23.8708 29.7571 25.2225 28.3792 27.244L32.4075 29.9897ZM42.3409 45.7669C39.9405 47.2441 38.2885 48.2577 36.9967 48.8928C35.6879 49.5362 35.1375 49.585 34.8824 49.5565L34.3397 54.4012C36.0191 54.5893 37.6149 54.0211 39.1474 53.2677C40.6967 52.5061 42.5811 51.3433 44.896 49.9186L42.3409 45.7669ZM26.8125 39C26.8125 41.8568 26.8103 44.1579 26.9644 45.9479C27.1168 47.7187 27.4441 49.384 28.3792 50.756L32.4075 48.0103C32.1993 47.7048 31.9549 47.0803 31.8214 45.5299C31.6897 43.9986 31.6875 41.947 31.6875 39H26.8125ZM34.8824 49.5565C33.935 49.4503 33.0243 48.9152 32.4075 48.0103L28.3792 50.756C29.7571 52.7775 31.9122 54.1292 34.3397 54.4012L34.8824 49.5565ZM44.896 49.9186C47.212 48.4933 49.0973 47.336 50.4883 46.2885C51.8789 45.2412 53.0844 44.0846 53.7316 42.5351L49.2332 40.6562C49.0892 41.0011 48.7203 41.517 47.5555 42.3943C46.3911 43.2712 44.7401 44.2903 42.3409 45.7669L44.896 49.9186ZM42.3409 32.2331C44.7401 33.7097 46.3911 34.7288 47.5555 35.6057C48.7204 36.483 49.0892 36.9989 49.2332 37.3438L53.7316 35.4649C53.0844 33.9154 51.8789 32.7588 50.4883 31.7115C49.0973 30.664 47.212 29.5067 44.896 28.0814L42.3409 32.2331ZM53.7316 42.5351C54.6728 40.2817 54.6728 37.7183 53.7316 35.4649L49.2332 37.3438C49.6723 38.3949 49.6723 39.6051 49.2332 40.6562L53.7316 42.5351Z" fill="white"/>
</svg>
