<svg width="39" height="26" viewBox="0 0 39 26" fill="none" xmlns="http://www.w3.org/2000/svg">
<path d="M33.4817 1.0793V6.6432H31.5023L30.1462 2.0656H30.1095L30.1828 6.6432H28.8266V1.0793H30.8792L32.1621 5.4896H32.1805L32.1071 1.0793H33.4817ZM5.00151 6.6992L6.02781 1.0793H8.48361L9.50991 6.6992H8.02541L7.27401 1.5818H7.25571L6.48601 6.6992H5.00151ZM16.6574 1.0793L16.7858 6.6992H15.3929L15.3562 1.6376H15.3196L14.4033 6.6992H12.9921L12.0757 1.6376H12.0391L12.0024 6.6992H10.6096L10.7379 1.0793H13.0104L13.6885 5.378H13.7068L14.4033 1.0793H16.6574ZM25.3261 5.8432C25.7112 5.8432 25.8393 5.5827 25.8576 5.4336C25.876 5.378 25.876 5.2849 25.876 5.2105V1.0795H27.2872V5.1175C27.2872 5.2291 27.2688 5.4336 27.2688 5.4896C27.1772 6.5317 26.3525 6.8852 25.326 6.8852C24.2996 6.8852 23.4933 6.5501 23.4016 5.4896C23.4016 5.4336 23.3833 5.2291 23.3833 5.1175V1.0795H24.7945V5.2475C24.7945 5.3219 24.7945 5.3966 24.8128 5.471C24.8313 5.5827 24.9413 5.8432 25.3261 5.8432ZM2.65561 5.0989C2.71061 5.2289 2.69231 5.415 2.67391 5.508C2.61901 5.6941 2.50901 5.8802 2.12411 5.8802C1.77591 5.8802 1.57431 5.6755 1.57431 5.378V4.8383H0.0898132V5.2661C0.0898132 6.5317 1.06121 6.9038 2.10581 6.9038C3.11381 6.9038 3.93851 6.5503 4.06681 5.6199C4.14011 5.1361 4.08511 4.8199 4.06681 4.6895C3.82851 3.5174 1.72091 3.1636 1.57431 2.4939C1.55601 2.3823 1.55601 2.2706 1.57431 2.1962C1.61101 2.0101 1.73931 1.824 2.08751 1.824C2.41741 1.824 2.60061 2.0287 2.60061 2.3264V2.68H3.97521V2.2892C3.97521 1.0611 2.89391 0.875 2.10581 0.875C1.11621 0.875 0.309814 1.2099 0.163114 2.1218C0.126514 2.3637 0.126514 2.587 0.181514 2.8847C0.401414 4.0566 2.38071 4.3732 2.65561 5.0989ZM20.6711 5.0989C20.7261 5.2289 20.7078 5.3966 20.6894 5.508C20.6528 5.6941 20.5245 5.8802 20.1579 5.8802C19.8097 5.8802 19.6081 5.6755 19.6081 5.378V4.8383H18.142V5.2661C18.142 6.5131 19.1133 6.8852 20.1396 6.8852C21.1293 6.8852 21.954 6.5501 22.0823 5.6197C22.1556 5.1359 22.1008 4.8198 22.0823 4.7079C21.844 3.5358 19.7731 3.2009 19.6266 2.5495C19.59 2.4379 19.6083 2.3262 19.6266 2.2518C19.6633 2.0657 19.7915 1.8797 20.1215 1.8797C20.4513 1.8797 20.6346 2.0844 20.6346 2.3821V2.7356H22.0091V2.3449C22.0091 1.1354 20.9279 0.94926 20.1581 0.94926C19.1868 0.94926 18.3804 1.2656 18.2338 2.1774C18.1971 2.4193 18.1788 2.6426 18.2521 2.9217C18.4535 4.0566 20.3962 4.3732 20.6711 5.0989ZM36.8904 5.7872C37.2934 5.7872 37.4218 5.5267 37.4588 5.378C37.4768 5.3219 37.4768 5.2289 37.4768 5.1729V4.3545H36.9089V3.5356H38.8697V5.0429C38.8697 5.1545 38.8697 5.2289 38.8512 5.415C38.7597 6.4384 37.8798 6.8106 36.8904 6.8106C35.919 6.8106 35.0393 6.4384 34.9476 5.415C34.9293 5.2289 34.9293 5.1545 34.9293 5.0429V2.6796C34.9293 2.5866 34.9476 2.4005 34.9476 2.3075C35.0759 1.2468 35.9005 0.91188 36.8904 0.91188C37.8798 0.91188 38.7417 1.2468 38.8332 2.3075C38.8516 2.475 38.8516 2.6796 38.8516 2.6796V2.8657H37.4588V2.5494C37.4588 2.5494 37.4588 2.4191 37.4403 2.3261C37.4218 2.1958 37.3119 1.9167 36.8904 1.9167C36.4874 1.9167 36.377 2.1958 36.3405 2.3261C36.322 2.4005 36.322 2.4935 36.322 2.5866V5.1543C36.322 5.2287 36.322 5.3034 36.3405 5.359C36.3405 5.5452 36.4874 5.7872 36.8904 5.7872Z" fill="#77A4E6"/>
<path d="M0.164393 25.0934V9.15221H2.73419V10.3234C3.09239 9.73781 3.77529 9.34741 4.32829 9.15221C4.88139 8.95701 5.43449 8.8919 6.02009 8.8919C7.45119 8.8919 8.94799 9.37991 10.1843 10.6487C11.3229 11.8199 11.9086 13.2839 11.9086 14.9756C11.9086 15.7564 11.7459 16.5372 11.4534 17.2529C11.1606 18.0015 10.7377 18.6522 10.2169 19.2049C9.66409 19.7909 9.01339 20.2463 8.32989 20.5388C7.61419 20.8316 6.96349 20.9943 6.11769 20.9943C5.49949 20.9943 4.88139 20.897 4.32829 20.7015C3.77529 20.5063 2.99449 20.084 2.70169 19.596V25.1266H0.164093L0.164393 25.0934ZM5.92279 11.137C4.97929 11.137 4.16599 11.4298 3.51529 12.113C2.83209 12.8288 2.57189 13.8373 2.57189 14.8783C2.57189 15.9516 2.83239 17.0255 3.48309 17.7409C4.16629 18.457 4.97959 18.7169 5.95559 18.7169C6.93159 18.7169 7.74499 18.3269 8.33059 17.7084C9.01409 16.993 9.33939 16.0492 9.33939 15.0081C9.33939 13.8695 9.01409 12.8935 8.33059 12.1778C7.74469 11.5271 6.89879 11.137 5.92279 11.137ZM26.7115 9.15221H29.4118L32.9253 17.3509L36.2112 9.15221H38.9114L32.177 25.0934H29.5093L31.6566 20.0508L26.7115 9.15221ZM22.6123 20.7669V19.5628C22.3195 20.0508 21.5387 20.5063 20.9856 20.6689C20.4 20.8641 19.8141 20.9617 19.1963 20.9617C18.3501 20.9617 17.6995 20.7991 16.9841 20.5063C16.3006 20.2135 15.6499 19.7583 15.0968 19.1724C14.5763 18.6197 14.1537 17.969 13.8605 17.2204C13.5681 16.4718 13.4054 15.7239 13.4054 14.9431C13.4054 13.2513 13.991 11.7874 15.1297 10.6162C16.3659 9.34741 17.895 8.85941 19.2939 8.85941C19.8795 8.85941 20.4326 8.95701 20.9856 9.11961C21.5387 9.31481 22.2219 9.70521 22.5794 10.2908V9.11961H25.1496V20.7343H22.612L22.6123 20.7669ZM16.9841 12.1452C16.3006 12.8609 15.9752 13.8695 15.9752 14.9756C15.9752 16.017 16.3006 16.9598 16.9841 17.6759C17.6019 18.294 18.383 18.6844 19.359 18.6844C20.335 18.6844 21.1483 18.4238 21.8315 17.7084C22.515 16.993 22.7424 15.9516 22.7424 14.8455C22.7424 13.8369 22.4822 12.7959 21.7993 12.0802C21.1158 11.397 20.3024 11.1042 19.3919 11.1042C18.383 11.137 17.5697 11.5271 16.9841 12.1452Z" fill="#1E4AC5"/>
</svg>
