<svg width="51" height="18" viewBox="0 0 51 18" fill="none" xmlns="http://www.w3.org/2000/svg">
<path d="M22.1102 16.989H17.9922L20.5679 1.0625H24.6858L22.1102 16.989Z" fill="#00579F"/>
<path d="M37.0406 1.45151C36.2283 1.12927 34.94 0.773438 33.347 0.773438C29.2802 0.773438 26.4165 2.94203 26.3989 6.0425C26.3651 8.32995 28.4493 9.60051 30.0081 10.3632C31.6013 11.1426 32.1429 11.6513 32.1429 12.346C32.1267 13.413 30.8555 13.9048 29.6699 13.9048C28.0257 13.9048 27.1448 13.6512 25.806 13.0576L25.2638 12.8032L24.6875 16.3783C25.6533 16.8183 27.4328 17.2088 29.2802 17.2259C33.6012 17.2259 36.4143 15.0909 36.4477 11.7869C36.4641 9.97386 35.3636 8.58467 32.9909 7.44947C31.5506 6.72075 30.6685 6.22938 30.6685 5.48379C30.6855 4.80595 31.4146 4.11166 33.0405 4.11166C34.3793 4.0777 35.3629 4.39947 36.1081 4.72152L36.4805 4.89061L37.0406 1.45151Z" fill="#00579F"/>
<path d="M42.5122 11.3468C42.851 10.4318 44.156 6.89068 44.156 6.89068C44.1389 6.92469 44.4947 5.95886 44.698 5.36591L44.9855 6.73823C44.9855 6.73823 45.7655 10.5505 45.9347 11.3468C45.2914 11.3468 43.3255 11.3468 42.5122 11.3468ZM47.5951 1.0625H44.4097C43.4277 1.0625 42.6814 1.35031 42.2576 2.38394L36.1406 16.9887H40.4616C40.4616 16.9887 41.173 15.023 41.326 14.5996C41.8001 14.5996 46.0035 14.5996 46.6131 14.5996C46.7314 15.1588 47.1043 16.9887 47.1043 16.9887H50.9173L47.5951 1.0625Z" fill="#00579F"/>
<path d="M14.5539 1.0625L10.521 11.9228L10.0802 9.7202C9.33465 7.17872 6.99627 4.41741 4.38672 3.0444L8.08078 16.972H12.4355L18.9084 1.0625H14.5539Z" fill="#00579F"/>
<path d="M6.77539 1.06226H0.149778L0.0820312 1.38408C5.25039 2.7057 8.67328 5.89151 10.0796 9.72065L8.63927 2.40102C8.40215 1.38385 7.67344 1.09581 6.77539 1.06226Z" fill="#FAA61A"/>
</svg>
